<?xml version="1.0" encoding="utf-8"?>
<!-- Generator: Adobe Illustrator 27.5.0, SVG Export Plug-In . SVG Version: 6.00 Build 0)  -->
<svg version="1.1" id="Layer_1" xmlns="http://www.w3.org/2000/svg" xmlns:xlink="http://www.w3.org/1999/xlink" x="0px" y="0px"
	 viewBox="0 0 1080 809.899" style="enable-background:new 0 0 1080 809.899;" xml:space="preserve">
<g>
	<linearGradient id="SVGID_1_" gradientUnits="userSpaceOnUse" x1="539.9877" y1="-182.9572" x2="539.9877" y2="1120.8265">
		<stop  offset="0" style="stop-color:#E7E8E9"/>
		<stop  offset="0.1874" style="stop-color:#EFF0F1"/>
		<stop  offset="0.5906" style="stop-color:#FBFBFB"/>
		<stop  offset="1" style="stop-color:#FFFFFF"/>
	</linearGradient>
	<rect x="-0.012" y="0" style="fill-rule:evenodd;clip-rule:evenodd;fill:url(#SVGID_1_);" width="1080" height="809.899"/>
	<g>
		<path style="fill:#8FB040;" d="M252.713,536.533h-19.949l-16.258-43.039h-26.546v43.039H171.09V431.84h45.417
			c12.621,0,21.909,2.857,27.83,8.563c5.943,5.685,8.898,13.061,8.898,22.118c0,13.457-6.284,22.695-18.877,27.748L252.713,536.533
			L252.713,536.533z M189.961,478.384h23.48c6.784,0,11.858-1.411,15.187-4.29c3.323-2.85,4.976-6.805,4.976-11.803
			c0-4.614-1.626-8.327-4.899-11.155c-3.268-2.85-7.849-4.268-13.742-4.268h-25.002V478.384L189.961,478.384z M318.343,511.844
			l15.813,2.147c-2.043,6.987-6.047,12.776-11.962,17.328c-5.948,4.559-13.38,6.833-22.332,6.833
			c-10.738,0-19.372-3.614-25.919-10.837c-6.542-7.2-9.815-16.966-9.815-29.291c0-11.71,3.301-21.388,9.892-29.061
			c6.597-7.673,15.549-11.518,26.836-11.518c11.046,0,19.581,3.795,25.628,11.358c6.02,7.569,9.035,17.28,9.035,29.138l-0.055,2.016
			h-53.168c0,5.262,0.495,9.48,1.494,12.643c0.988,3.169,2.977,5.916,5.937,8.272c2.983,2.362,6.673,3.537,11.128,3.537
			C309.495,524.411,315.333,520.226,318.343,511.844L318.343,511.844z M317.272,488.677c-0.055-5.58-1.73-10.133-5.032-13.665
			c-3.295-3.504-7.354-5.289-12.226-5.289c-4.817,0-8.821,1.653-12.039,4.949c-3.219,3.295-5.102,7.958-5.68,14.006H317.272
			L317.272,488.677z M417.741,536.533h-16.648c-1.488-4.718-2.384-9.925-2.697-15.659c-4.63,11.524-13.374,17.279-26.232,17.279
			c-7.722,0-13.896-2.274-18.586-6.805c-4.686-4.531-7.014-10.21-7.014-17.07c0-17.774,15.626-26.677,46.862-26.677
			c1.231,0,2.878,0.028,4.971,0.077v-5.833c0-8.035-5.47-12.04-16.412-12.04c-10.628,0-16.653,4.005-18.092,12.04l-14.868-2.224
			c0.813-6.443,4.136-11.754,9.947-15.917c5.839-4.163,14.27-6.256,25.315-6.256c5.992,0,10.864,0.516,14.665,1.516
			c3.768,0.999,6.959,2.675,9.574,5.053c2.625,2.384,4.427,4.948,5.421,7.75c0.994,2.773,1.494,7.486,1.494,14.138v34.97
			C415.439,525.96,416.197,531.167,417.741,536.533L417.741,536.533z M398.396,497.103c-22.591,0-33.899,5.393-33.899,16.181
			c0,3.219,1.153,5.97,3.427,8.25c2.279,2.274,5.707,3.427,10.315,3.427c6.646,0,11.677-2.12,15.077-6.339
			c3.378-4.207,5.08-9.002,5.08-14.368V497.103L398.396,497.103z M453.765,536.533h-17.488V431.84h17.488V536.533L453.765,536.533z
			 M583.083,536.533H515.05V431.84h67.352v15.577h-48.479v28.38h38.956v15.181h-38.956v29.291h49.16V536.533L583.083,536.533z
			 M588.927,518.732l16.411-3.147c2.516,6.289,8.041,9.453,16.566,9.453c10.842,0,16.258-3.219,16.258-9.606
			c0-2.043-0.835-3.719-2.538-5.053c-1.67-1.335-3.658-2.224-5.965-2.697l-14.105-2.669c-15.664-3.009-23.485-10.655-23.485-22.936
			c0-6.855,2.483-12.666,7.426-17.455c4.976-4.768,12.369-7.173,22.178-7.173c16.357,0,26.364,6.02,30,18.031l-15.576,3.147
			c-1.648-5.844-6.283-8.744-13.951-8.744c-9.326,0-13.984,2.9-13.984,8.744c0,4.032,3.779,6.833,11.282,8.349l16.653,3.454
			c12.94,2.67,19.399,10.079,19.399,22.25c0,8.541-3.328,14.923-9.974,19.135c-6.646,4.218-14.555,6.339-23.695,6.339
			c-7.931,0-14.918-1.62-21.014-4.817C594.738,530.145,590.761,525.268,588.927,518.732L588.927,518.732z M705.576,522.895v13.638
			c-5.207,1.126-9.239,1.675-12.094,1.675c-4.713,0-8.744-0.923-12.117-2.779c-3.383-1.879-5.844-4.421-7.414-7.668
			c-1.571-3.251-2.329-8.25-2.329-15v-40.106h-9.678v-13.588h10.677l1.593-20.185l14.346-1.279v21.464h15.577v13.588h-15.577v37.805
			c0,4.844,0.89,8.161,2.647,9.919c1.779,1.779,5.097,2.647,9.997,2.647C702.599,523.027,704.061,522.972,705.576,522.895
			L705.576,522.895z M786.602,536.533h-16.654c-1.494-4.718-2.384-9.925-2.691-15.659c-4.636,11.524-13.38,17.279-26.232,17.279
			c-7.722,0-13.907-2.274-18.586-6.805c-4.691-4.531-7.02-10.21-7.02-17.07c0-17.774,15.632-26.677,46.862-26.677
			c1.231,0,2.878,0.028,4.976,0.077v-5.833c0-8.035-5.471-12.04-16.412-12.04c-10.633,0-16.653,4.005-18.092,12.04l-14.873-2.224
			c0.813-6.443,4.141-11.754,9.952-15.917c5.833-4.163,14.259-6.256,25.309-6.256c5.998,0,10.865,0.516,14.665,1.516
			c3.768,0.999,6.964,2.675,9.579,5.053c2.614,2.384,4.427,4.948,5.416,7.75c0.999,2.773,1.494,7.486,1.494,14.138v34.97
			C784.295,525.96,785.053,531.167,786.602,536.533L786.602,536.533z M767.257,497.103c-22.596,0-33.911,5.393-33.911,16.181
			c0,3.219,1.164,5.97,3.427,8.25c2.285,2.274,5.712,3.427,10.326,3.427c6.646,0,11.677-2.12,15.071-6.339
			c3.384-4.207,5.086-9.002,5.086-14.368V497.103L767.257,497.103z M841.098,522.895v13.638c-5.207,1.126-9.239,1.675-12.083,1.675
			c-4.724,0-8.755-0.923-12.128-2.779c-3.372-1.879-5.833-4.421-7.414-7.668c-1.56-3.251-2.318-8.25-2.318-15v-40.106h-9.689
			v-13.588h10.677l1.604-20.185l14.335-1.279v21.464h15.577v13.588h-15.577v37.805c0,4.844,0.89,8.161,2.647,9.919
			c1.779,1.779,5.108,2.647,10.007,2.647C838.121,523.027,839.582,522.972,841.098,522.895L841.098,522.895z M902.855,511.844
			l15.818,2.147c-2.043,6.987-6.053,12.776-11.974,17.328c-5.943,4.559-13.369,6.833-22.322,6.833
			c-10.732,0-19.377-3.614-25.925-10.837c-6.536-7.2-9.809-16.966-9.809-29.291c0-11.71,3.295-21.388,9.886-29.061
			c6.602-7.673,15.555-11.518,26.836-11.518c11.051,0,19.586,3.795,25.628,11.358c6.02,7.569,9.03,17.28,9.03,29.138l-0.044,2.016
			h-53.178c0,5.262,0.506,9.48,1.494,12.643c1,3.169,2.988,5.916,5.943,8.272c2.988,2.362,6.679,3.537,11.128,3.537
			C894.012,524.411,899.845,520.226,902.855,511.844L902.855,511.844z M901.779,488.677c-0.044-5.58-1.725-10.133-5.02-13.665
			c-3.295-3.504-7.36-5.289-12.226-5.289c-4.823,0-8.821,1.653-12.051,4.949c-3.208,3.295-5.097,7.958-5.679,14.006H901.779z"/>
		<g>
			<polygon style="fill-rule:evenodd;clip-rule:evenodd;fill:#8FB040;" points="314.421,454.277 537.103,271.037 759.326,445.368 
				757.426,446.923 536.175,316.652 387.417,408.973 376.953,415.473 			"/>
			<path style="fill-rule:evenodd;clip-rule:evenodd;fill:#8FB040;" d="M531.506,358.925c10.035-0.115,18.842,4.155,23.61,10.611
				c-4.328-3.147-10.087-5.028-16.404-4.957c-13.297,0.154-23.969,8.939-23.843,19.619c0.099,8.744,7.398,16.041,17.34,18.323
				l-0.198,0.002c-14.978,0.173-27.242-9.444-27.38-21.484C504.489,369.004,516.522,359.099,531.506,358.925z"/>
			<g>
				<polygon style="fill-rule:evenodd;clip-rule:evenodd;fill:#8FB040;" points="627.352,352.43 731.182,266.992 908.667,406.232 
					907.161,407.473 730.435,303.429 638.601,360.425 				"/>
				<path style="fill-rule:evenodd;clip-rule:evenodd;fill:#8FB040;" d="M731.93,330.455c6.569-0.08,12.336,2.722,15.456,6.945
					c-2.834-2.057-6.613-3.292-10.744-3.243c-8.711,0.099-15.697,5.855-15.62,12.847c0.077,5.725,4.855,10.507,11.358,11.998
					l-0.121,0.003c-9.809,0.115-17.839-6.187-17.938-14.069C714.233,337.051,722.12,330.568,731.93,330.455z"/>
			</g>
			<g>
				<polygon style="fill-rule:evenodd;clip-rule:evenodd;fill:#8FB040;" points="438.337,354.636 332.546,271.644 158.352,414.99 
					159.891,416.192 334.139,308.051 427.275,362.888 				"/>
				<path style="fill-rule:evenodd;clip-rule:evenodd;fill:#8FB040;" d="M333.283,335.102c-6.575,0.079-12.271,3.012-15.297,7.308
					c2.79-2.123,6.531-3.447,10.666-3.496c8.706-0.102,15.83,5.49,15.912,12.487c0.066,5.721-4.602,10.612-11.078,12.257h0.132
					c9.81-0.113,17.691-6.602,17.598-14.484C351.122,341.291,343.098,334.989,333.283,335.102z"/>
			</g>
		</g>
		
			<linearGradient id="SVGID_00000004533297134792983720000000107792965488993423_" gradientUnits="userSpaceOnUse" x1="548.3453" y1="352.7214" x2="541.4383" y2="748.4243">
			<stop  offset="0" style="stop-color:#8FB040"/>
			<stop  offset="1" style="stop-color:#FFFFFF"/>
		</linearGradient>
		<path style="fill:url(#SVGID_00000004533297134792983720000000107792965488993423_);" d="M252.713,539.883h-19.949l-12.924,34.213
			h19.301L252.713,539.883L252.713,539.883z M189.961,574.096v-34.213H171.09v34.213H189.961L189.961,574.096z M318.343,564.572
			l15.813-2.154c-2.043-6.986-6.047-12.77-11.962-17.323c-5.948-4.559-13.38-6.833-22.332-6.833
			c-10.738,0-19.372,3.608-25.919,10.831c-5.767,6.349-8.997,14.676-9.683,25.002h18.065c0.132-4.179,0.621-7.601,1.467-10.282
			c0.988-3.175,2.977-5.921,5.937-8.272c2.983-2.362,6.673-3.537,11.128-3.537C309.495,552.005,315.333,556.19,318.343,564.572
			L318.343,564.572z M417.741,539.883h-16.648c-1.488,4.713-2.384,9.919-2.697,15.659c-4.63-11.523-13.374-17.279-26.232-17.279
			c-7.722,0-13.896,2.274-18.586,6.805c-4.686,4.531-7.014,10.21-7.014,17.065c0,4.58,1.038,8.562,3.108,11.962h21.179
			c-4.24-2.647-6.354-6.294-6.354-10.963c0-3.224,1.153-5.976,3.427-8.25c2.279-2.274,5.707-3.427,10.315-3.427
			c6.646,0,11.677,2.12,15.077,6.333c3.378,4.213,5.08,9.002,5.08,14.374v1.933h17.043v-18.554
			C415.439,550.456,416.197,545.249,417.741,539.883L417.741,539.883z M453.765,539.883h-17.488v34.213h17.488V539.883
			L453.765,539.883z M583.083,539.883H515.05v34.213h18.872v-17.955h49.16V539.883L583.083,539.883z M588.927,557.684l16.411,3.142
			c2.516-6.283,8.041-9.452,16.566-9.452c10.842,0,16.258,3.224,16.258,9.612c0,2.038-0.835,3.713-2.538,5.047
			c-1.67,1.34-3.658,2.23-5.965,2.703l-14.105,2.669c-3.493,0.67-6.602,1.56-9.304,2.691h47.18
			c1.374-2.955,2.065-6.404,2.065-10.365c0-8.535-3.328-14.923-9.974-19.135c-6.646-4.213-14.555-6.333-23.695-6.333
			c-7.931,0-14.918,1.62-21.014,4.812C594.738,546.271,590.761,551.143,588.927,557.684L588.927,557.684z M705.576,553.521v-13.638
			c-5.207-1.126-9.239-1.675-12.094-1.675c-4.713,0-8.744,0.917-12.117,2.773c-3.383,1.884-5.844,4.422-7.414,7.673
			c-1.571,3.246-2.329,8.244-2.329,14.994v10.447h16.939v-8.14c0-4.845,0.89-8.167,2.647-9.919c1.779-1.779,5.097-2.647,9.997-2.647
			C702.599,553.389,704.061,553.444,705.576,553.521L705.576,553.521z M786.602,539.883h-16.654
			c-1.494,4.713-2.384,9.919-2.691,15.659c-4.636-11.523-13.38-17.279-26.232-17.279c-7.722,0-13.907,2.274-18.586,6.805
			c-4.691,4.531-7.02,10.21-7.02,17.065c0,4.58,1.033,8.562,3.109,11.962h21.179c-4.24-2.647-6.361-6.294-6.361-10.963
			c0-3.224,1.164-5.976,3.427-8.25c2.285-2.274,5.712-3.427,10.326-3.427c6.646,0,11.677,2.12,15.071,6.333
			c3.384,4.213,5.086,9.002,5.086,14.374v1.933h17.038v-18.554C784.295,550.456,785.053,545.249,786.602,539.883L786.602,539.883z
			 M841.098,553.521v-13.638c-5.207-1.126-9.239-1.675-12.083-1.675c-4.724,0-8.755,0.917-12.128,2.773
			c-3.372,1.884-5.833,4.422-7.414,7.673c-1.56,3.246-2.318,8.244-2.318,14.994v10.447h16.927v-8.14c0-4.845,0.89-8.167,2.647-9.919
			c1.779-1.779,5.108-2.647,10.007-2.647C838.121,553.389,839.582,553.444,841.098,553.521L841.098,553.521z M902.855,564.572
			l15.818-2.154c-2.043-6.986-6.053-12.77-11.974-17.323c-5.943-4.559-13.369-6.833-22.322-6.833
			c-10.732,0-19.377,3.608-25.925,10.831c-5.767,6.349-8.997,14.676-9.678,25.002h18.06c0.132-4.179,0.626-7.601,1.461-10.282
			c1-3.175,2.988-5.921,5.943-8.272c2.988-2.362,6.679-3.537,11.128-3.537C894.012,552.005,899.845,556.19,902.855,564.572z"/>
	</g>
</g>
</svg>
